<svg width="50" height="50" viewBox="0 0 50 50" fill="none" xmlns="http://www.w3.org/2000/svg">
<path d="M50 7C50 3.13401 46.866 0 43 0H7C3.13401 0 0 3.13401 0 7V43C0 46.866 3.13401 50 7 50H50V7Z" fill="url(#paint0_linear)"/>
<g filter="url(#filter0_d)">
<path d="M43.4181 26.4142C44.1992 25.6332 44.1992 24.3668 43.4181 23.5858L30.6902 10.8579C29.9091 10.0768 28.6428 10.0768 27.8618 10.8579C27.0807 11.6389 27.0807 12.9052 27.8618 13.6863L39.1755 25L27.8618 36.3137C27.0807 37.0948 27.0807 38.3611 27.8618 39.1421C28.6428 39.9232 29.9091 39.9232 30.6902 39.1421L43.4181 26.4142ZM8 23C6.89543 23 6 23.8954 6 25C6 26.1046 6.89543 27 8 27L8 23ZM42.0039 23L8 23L8 27L42.0039 27L42.0039 23Z" fill="#CBD8D2"/>
</g>
<defs>
<filter id="filter0_d" x="2" y="10.2721" width="46.0039" height="37.4558" filterUnits="userSpaceOnUse" color-interpolation-filters="sRGB">
<feFlood flood-opacity="0" result="BackgroundImageFix"/>
<feColorMatrix in="SourceAlpha" type="matrix" values="0 0 0 0 0 0 0 0 0 0 0 0 0 0 0 0 0 0 127 0" result="hardAlpha"/>
<feOffset dy="4"/>
<feGaussianBlur stdDeviation="2"/>
<feComposite in2="hardAlpha" operator="out"/>
<feColorMatrix type="matrix" values="0 0 0 0 0 0 0 0 0 0 0 0 0 0 0 0 0 0 0.25 0"/>
<feBlend mode="normal" in2="BackgroundImageFix" result="effect1_dropShadow"/>
<feBlend mode="normal" in="SourceGraphic" in2="effect1_dropShadow" result="shape"/>
</filter>
<linearGradient id="paint0_linear" x1="25" y1="0" x2="25" y2="50" gradientUnits="userSpaceOnUse">
<stop offset="0.0001" stop-color="#C9DDFA" stop-opacity="0.0416667"/>
<stop offset="0.0002" stop-color="#8F9D97"/>
<stop offset="1" stop-color="#747F91"/>
</linearGradient>
</defs>
</svg>
