<svg width="40" height="40" viewBox="0 0 40 40" fill="none" xmlns="http://www.w3.org/2000/svg">
<circle cx="20" cy="20" r="20" fill="#28256B"/>
<path d="M33 32L27.0974 26.3234L33 32ZM30.3684 18.7368C30.3684 21.5844 29.1901 24.3154 27.0926 26.3289C24.9952 28.3425 22.1504 29.4737 19.1842 29.4737C16.218 29.4737 13.3732 28.3425 11.2758 26.3289C9.17833 24.3154 8 21.5844 8 18.7368C8 15.8893 9.17833 13.1583 11.2758 11.1447C13.3732 9.1312 16.218 8 19.1842 8C22.1504 8 24.9952 9.1312 27.0926 11.1447C29.1901 13.1583 30.3684 15.8893 30.3684 18.7368V18.7368Z" stroke="white" stroke-width="3" stroke-linecap="round"/>
</svg>
