<svg width="70" height="70" viewBox="0 0 70 70" fill="none" xmlns="http://www.w3.org/2000/svg">
<g filter="url(#filter0_d)">
<path d="M60 7C60 3.13401 56.866 0 53 0H17C13.134 0 10 3.13401 10 7V43C10 46.866 13.134 50 17 50H60V7Z" fill="url(#paint0_linear)"/>
<g filter="url(#filter1_d)">
<path d="M17.9167 42.0833L25.9639 34.0217L17.9167 42.0833ZM21.5044 23.2478C21.5044 27.2918 23.1108 31.1701 25.9704 34.0296C28.8299 36.8892 32.7082 38.4956 36.7522 38.4956C40.7962 38.4956 44.6745 36.8892 47.534 34.0296C50.3935 31.1701 52 27.2918 52 23.2478C52 19.2038 50.3935 15.3255 47.534 12.466C44.6745 9.60646 40.7962 8 36.7522 8C32.7082 8 28.8299 9.60646 25.9704 12.466C23.1108 15.3255 21.5044 19.2038 21.5044 23.2478V23.2478Z" stroke="#CBD8D2" stroke-width="4" stroke-linecap="round" shape-rendering="crispEdges"/>
</g>
</g>
<defs>
<filter id="filter0_d" x="0" y="0" width="70" height="70" filterUnits="userSpaceOnUse" color-interpolation-filters="sRGB">
<feFlood flood-opacity="0" result="BackgroundImageFix"/>
<feColorMatrix in="SourceAlpha" type="matrix" values="0 0 0 0 0 0 0 0 0 0 0 0 0 0 0 0 0 0 127 0" result="hardAlpha"/>
<feOffset dy="10"/>
<feGaussianBlur stdDeviation="5"/>
<feComposite in2="hardAlpha" operator="out"/>
<feColorMatrix type="matrix" values="0 0 0 0 0 0 0 0 0 0 0 0 0 0 0 0 0 0 0.5 0"/>
<feBlend mode="normal" in2="BackgroundImageFix" result="effect1_dropShadow"/>
<feBlend mode="normal" in="SourceGraphic" in2="effect1_dropShadow" result="shape"/>
</filter>
<filter id="filter1_d" x="12.5012" y="6" width="45.4988" height="45.4963" filterUnits="userSpaceOnUse" color-interpolation-filters="sRGB">
<feFlood flood-opacity="0" result="BackgroundImageFix"/>
<feColorMatrix in="SourceAlpha" type="matrix" values="0 0 0 0 0 0 0 0 0 0 0 0 0 0 0 0 0 0 127 0" result="hardAlpha"/>
<feOffset dy="4"/>
<feGaussianBlur stdDeviation="2"/>
<feComposite in2="hardAlpha" operator="out"/>
<feColorMatrix type="matrix" values="0 0 0 0 0 0 0 0 0 0 0 0 0 0 0 0 0 0 0.25 0"/>
<feBlend mode="normal" in2="BackgroundImageFix" result="effect1_dropShadow"/>
<feBlend mode="normal" in="SourceGraphic" in2="effect1_dropShadow" result="shape"/>
</filter>
<linearGradient id="paint0_linear" x1="35" y1="0" x2="35" y2="50" gradientUnits="userSpaceOnUse">
<stop offset="0.0001" stop-color="#C9DDFA" stop-opacity="0.0416667"/>
<stop offset="0.0002" stop-color="#8F9D97"/>
<stop offset="1" stop-color="#747F91"/>
</linearGradient>
</defs>
</svg>
